<?xml version="1.0" standalone="no"?>
<!DOCTYPE svg PUBLIC "-//W3C//DTD SVG 20010904//EN"
 "http://www.w3.org/TR/2001/REC-SVG-20010904/DTD/svg10.dtd">
<svg version="1.0" xmlns="http://www.w3.org/2000/svg"
 width="1024.000000pt" height="1024.000000pt" viewBox="0 0 1024.000000 1024.000000"
 preserveAspectRatio="xMidYMid meet">

<g transform="translate(0.000000,1024.000000) scale(0.100000,-0.100000)"
fill="#000000" stroke="none">
<path d="M5152 8364 c-55 -27 -137 -110 -177 -177 -34 -59 -55 -149 -55 -237
0 -170 55 -274 247 -471 135 -139 155 -176 154 -286 -1 -128 -62 -217 -144
-211 -39 3 -42 5 -74 70 -38 75 -98 141 -224 245 -140 117 -189 186 -210 298
-11 60 -8 84 22 183 17 57 17 66 4 92 -18 35 -71 55 -108 41 -65 -25 -117
-150 -117 -284 0 -169 45 -265 183 -397 234 -223 257 -248 285 -307 31 -68 42
-190 22 -257 -7 -23 -37 -81 -69 -130 l-56 -90 -3 -112 c-3 -85 -7 -116 -19
-125 -8 -7 -53 -15 -103 -17 -80 -4 -90 -2 -110 18 -20 20 -21 29 -18 128 l3
107 48 80 c36 61 48 92 49 125 3 109 -41 176 -206 315 -174 146 -243 246 -266
388 -14 88 -2 156 46 259 42 89 41 118 -9 149 -41 25 -71 18 -118 -28 -124
-120 -159 -359 -80 -552 31 -74 87 -165 121 -196 11 -10 20 -22 20 -26 0 -10
-126 -58 -270 -103 -253 -79 -541 -130 -1025 -181 -184 -20 -229 -38 -263
-105 l-23 -45 4 -785 c4 -832 8 -907 58 -1190 82 -463 242 -834 522 -1205 359
-475 856 -878 1420 -1150 285 -138 371 -162 468 -130 204 67 581 264 814 423
370 254 703 575 937 902 317 443 468 863 528 1465 19 196 21 261 18 956 l-3
746 -27 35 c-46 60 -89 72 -323 93 -38 3 -77 8 -85 10 -8 2 -42 6 -75 10 -51
5 -182 24 -278 41 -186 31 -607 141 -607 158 0 2 9 29 20 61 78 225 24 486
-137 665 -137 153 -283 174 -283 41 0 -43 3 -48 72 -110 132 -122 188 -240
188 -400 0 -102 -17 -167 -68 -266 -38 -71 -137 -179 -333 -360 -121 -113
-142 -148 -149 -249 l-5 -81 -107 -3 c-106 -3 -107 -2 -124 24 -16 23 -17 37
-7 126 18 155 40 193 241 401 100 102 178 193 194 223 57 105 73 240 42 345
-27 93 -74 159 -212 302 -146 150 -182 209 -190 304 -9 112 37 210 134 284 60
46 73 72 60 123 -6 25 -54 56 -88 56 -13 0 -47 -12 -76 -26z m-2079 -2076 c97
-51 26 -181 -78 -142 -24 10 -46 60 -39 89 7 30 49 65 76 65 11 0 29 -5 41
-12z m3933 -11 c55 -48 18 -137 -57 -137 -35 0 -79 39 -79 70 0 76 80 115 136
67z m-2990 -48 c102 -18 190 -68 300 -170 60 -56 120 -102 154 -118 l55 -26
443 -3 c552 -4 532 -8 704 155 134 126 231 167 403 167 78 1 115 -4 168 -22
185 -62 367 -224 464 -417 77 -151 145 -433 192 -795 27 -206 34 -312 35 -564
1 -170 -2 -226 -17 -286 -33 -140 -136 -287 -248 -352 -116 -68 -272 -77 -389
-21 -141 66 -197 135 -330 408 -54 110 -118 228 -144 262 -119 157 -298 271
-511 324 -104 26 -390 37 -520 20 -194 -26 -368 -107 -502 -234 -106 -101
-154 -174 -244 -368 -44 -94 -94 -193 -113 -222 -48 -75 -136 -153 -213 -190
-63 -30 -76 -32 -173 -32 -98 0 -110 2 -174 33 -138 65 -233 176 -282 327 -26
79 -26 84 -25 358 1 289 7 376 42 611 57 395 146 691 250 837 173 243 427 363
675 318z m1017 -2050 c12 -6 101 -62 197 -124 96 -61 222 -141 280 -177 57
-36 114 -78 125 -92 19 -26 20 -45 23 -364 3 -355 0 -392 -40 -429 -21 -19
-136 -94 -481 -310 -64 -40 -130 -76 -145 -79 -38 -8 -93 23 -389 219 -185
123 -257 176 -270 200 -16 29 -18 64 -16 379 2 295 5 353 18 379 10 18 46 49
88 76 123 79 237 153 376 245 111 73 140 88 173 88 21 0 49 -5 61 -11z"/>
<path d="M6074 5966 c-40 -18 -72 -59 -80 -103 -13 -70 58 -163 124 -163 38 0
93 31 113 64 27 44 26 125 -3 161 -22 28 -74 55 -105 55 -10 -1 -32 -7 -49
-14z"/>
<path d="M3814 5961 c-11 -5 -33 -23 -47 -41 -24 -28 -27 -40 -27 -103 0 -40
-3 -82 -6 -95 -10 -34 -54 -52 -130 -52 -64 0 -68 -1 -105 -39 -33 -32 -39
-45 -39 -80 0 -51 20 -93 59 -120 23 -17 44 -21 103 -21 105 0 113 -7 114
-113 1 -128 40 -177 137 -177 91 1 127 48 127 166 0 112 6 118 119 124 103 7
132 24 153 92 22 74 -33 167 -100 169 -166 5 -172 9 -172 135 0 81 -1 86 -33
120 -28 31 -41 37 -83 40 -27 2 -58 0 -70 -5z"/>
<path d="M5756 5739 c-116 -91 -34 -279 104 -239 77 22 114 100 85 177 -30 78
-128 110 -189 62z"/>
<path d="M6350 5742 c-71 -35 -79 -145 -15 -209 27 -27 41 -33 77 -33 24 0 56
8 74 19 85 52 79 189 -11 227 -46 19 -83 18 -125 -4z"/>
<path d="M4596 5629 c-20 -16 -26 -29 -26 -60 0 -81 32 -99 172 -99 107 0 149
15 168 59 11 28 11 37 -3 67 -22 46 -49 54 -176 54 -94 0 -112 -3 -135 -21z"/>
<path d="M5075 5625 c-45 -44 -29 -116 30 -141 40 -16 210 -19 250 -4 37 14
60 73 44 112 -19 47 -54 58 -184 58 -110 0 -117 -1 -140 -25z"/>
<path d="M6064 5530 c-82 -33 -87 -175 -8 -235 23 -17 94 -19 129 -3 61 28 88
133 50 192 -31 48 -113 70 -171 46z"/>
<path d="M4370 5248 c-109 -73 -99 -232 18 -289 75 -37 154 -16 206 55 30 40
29 131 -3 177 -37 54 -69 73 -131 77 -45 3 -61 0 -90 -20z"/>
<path d="M5429 5247 c-18 -12 -44 -38 -57 -57 -20 -29 -23 -44 -20 -93 6 -87
59 -145 139 -154 98 -10 186 78 176 175 -13 120 -145 192 -238 129z"/>
<path d="M4919 4004 c-30 -32 -32 -93 -5 -123 61 -67 180 -8 161 81 -15 66
-109 92 -156 42z"/>
<path d="M4684 3847 c-39 -34 -40 -100 -1 -133 32 -27 66 -30 106 -9 32 16 41
33 41 75 0 42 -9 59 -41 75 -40 21 -74 19 -105 -8z"/>
<path d="M5185 3858 c-33 -17 -45 -40 -45 -80 0 -96 128 -123 165 -35 34 82
-44 157 -120 115z"/>
<path d="M4944 3696 c-85 -37 -55 -166 38 -166 107 0 122 149 18 173 -14 3
-39 0 -56 -7z"/>
<path d="M4437 3673 c-4 -3 -7 -134 -7 -291 0 -319 -2 -312 77 -364 242 -161
371 -242 388 -242 20 -1 20 5 20 296 l0 298 -32 31 c-17 18 -67 55 -111 83
-44 28 -131 84 -193 124 -110 70 -129 79 -142 65z m302 -288 c33 -16 41 -33
41 -80 0 -64 -79 -88 -125 -39 -32 35 -32 78 0 109 28 29 45 31 84 10z m-13
-247 c58 -27 61 -114 5 -138 -81 -33 -149 85 -78 135 26 18 38 19 73 3z"/>
<path d="M5405 3614 c-55 -36 -147 -95 -205 -132 -57 -37 -117 -77 -132 -90
l-28 -24 0 -304 c0 -199 4 -304 10 -304 6 0 88 51 183 113 94 62 200 131 234
152 34 22 67 50 72 63 7 14 11 126 11 295 0 272 -3 297 -34 297 -6 0 -56 -30
-111 -66z m6 -193 c34 -35 37 -68 8 -105 -27 -35 -90 -37 -113 -4 -24 34 -20
85 9 113 32 33 60 31 96 -4z"/>
<path d="M3441 7712 c-62 -33 -87 -111 -56 -172 34 -65 109 -89 175 -55 86 44
76 193 -15 231 -45 18 -63 18 -104 -4z"/>
<path d="M6433 7715 c-63 -27 -89 -107 -59 -179 19 -45 52 -66 104 -66 82 0
132 48 132 127 0 50 -18 82 -59 110 -39 26 -72 28 -118 8z"/>
<path d="M3285 7281 c-48 -20 -69 -71 -54 -126 12 -43 43 -65 89 -65 47 0 77
22 89 67 11 39 -3 87 -31 110 -20 17 -69 24 -93 14z"/>
<path d="M6634 7280 c-58 -24 -72 -107 -28 -159 54 -65 164 -22 164 63 0 66
-78 121 -136 96z"/>
</g>
</svg>
